<svg width="1182" height="563" viewBox="0 0 1182 563" fill="none" xmlns="http://www.w3.org/2000/svg">
<path fill-rule="evenodd" clip-rule="evenodd" d="M486.967 140.576L243.483 0L-0.000732422 140.576V421.727L243.483 562.302L486.967 421.727V140.576ZM462.619 154.633L243.483 28.1151L24.3477 154.633V407.669L243.483 534.187L462.619 407.669V154.633Z" fill="#FFF9DA"/>
<path fill-rule="evenodd" clip-rule="evenodd" d="M464.624 406.849L389.887 363.699L240.413 449.998L240.413 536.297L464.624 406.849Z" fill="#FFF9DA"/>
<path fill-rule="evenodd" clip-rule="evenodd" d="M246.878 115.29L246.878 24.1294L22.6668 153.578L101.614 199.158L246.878 115.29Z" fill="#FFF9DA"/>
<path fill-rule="evenodd" clip-rule="evenodd" d="M241.104 281.429L241.104 281.431L241.103 281.43L241.104 281.429ZM22.1796 407.825L95.1533 365.694L241.104 449.959L241.104 534.222L220.07 522.077L220.07 454.668L103.31 387.256L44.9313 420.961L22.1796 407.825Z" fill="#FFF9DA"/>
<path fill-rule="evenodd" clip-rule="evenodd" d="M241.958 284.315L241.958 284.314L241.959 284.315L241.958 284.315ZM390.548 198.527L241.958 112.739L241.958 26.9523L464.841 155.634L390.548 198.527ZM440.775 142.903L381.609 177.062L263.274 108.741L263.274 40.4227L440.775 142.903Z" fill="#FFF9DA"/>
<path d="M277.037 284C280.861 286.676 284.398 289.066 287.648 291.169C291.089 293.081 294.053 295.184 296.538 297.478C301.509 302.067 303.994 307.707 303.994 314.398V363.15C303.994 371.753 300.935 378.349 294.817 382.937C289.655 387.143 282.868 389.246 274.456 389.246H182.976V336.193H203.623V369.745H281.052V313.824L205.917 267.654C199.226 263.83 193.682 259.911 189.285 255.896C185.079 251.69 182.976 246.05 182.976 238.976V202.843C182.976 191.563 185.652 183.82 191.005 179.614C195.594 175.982 203.528 174.165 214.807 174.165H301.413V227.219H280.765V193.666H205.917V239.55L277.037 284Z" fill="#FFF9DA"/>
<path d="M277.037 284L281.874 277.09L281.694 276.964L281.508 276.847L277.037 284ZM287.648 291.169L283.066 298.251L283.304 298.405L283.552 298.542L287.648 291.169ZM296.538 297.478L302.259 291.281L302.259 291.281L296.538 297.478ZM294.817 382.937L289.757 376.189L289.621 376.291L289.49 376.398L294.817 382.937ZM182.976 389.246H174.541V397.681H182.976V389.246ZM182.976 336.193V327.758H174.541V336.193H182.976ZM203.623 336.193H212.058V327.758H203.623V336.193ZM203.623 369.745H195.189V378.18H203.623V369.745ZM281.052 369.745V378.18H289.487V369.745H281.052ZM281.052 313.824H289.487V309.108L285.468 306.638L281.052 313.824ZM205.917 267.654L210.333 260.468L210.219 260.397L210.102 260.331L205.917 267.654ZM189.285 255.896L183.32 261.86L183.456 261.996L183.597 262.125L189.285 255.896ZM191.005 179.614L196.216 186.246L196.228 186.237L196.241 186.227L191.005 179.614ZM301.413 174.165H309.848V165.731H301.413V174.165ZM301.413 227.219V235.653H309.848V227.219H301.413ZM280.765 227.219H272.331V235.653H280.765V227.219ZM280.765 193.666H289.2V185.232H280.765V193.666ZM205.917 193.666V185.232H197.483V193.666H205.917ZM205.917 239.55H197.483V244.225L201.447 246.702L205.917 239.55ZM272.201 290.91C276.092 293.634 279.715 296.082 283.066 298.251L292.23 284.088C289.081 282.05 285.63 279.719 281.874 277.09L272.201 290.91ZM283.552 298.542C286.5 300.18 288.897 301.904 290.817 303.676L302.259 291.281C299.208 288.464 295.679 285.982 291.744 283.796L283.552 298.542ZM290.817 303.676C294.08 306.688 295.56 310.09 295.56 314.398H312.429C312.429 305.323 308.938 297.446 302.259 291.281L290.817 303.676ZM295.56 314.398V363.15H312.429V314.398H295.56ZM295.56 363.15C295.56 369.478 293.464 373.409 289.757 376.189L299.878 389.685C308.407 383.288 312.429 374.027 312.429 363.15H295.56ZM289.49 376.398C286.193 379.084 281.45 380.812 274.456 380.812V397.681C284.287 397.681 293.118 395.202 300.145 389.476L289.49 376.398ZM274.456 380.812H182.976V397.681H274.456V380.812ZM191.41 389.246V336.193H174.541V389.246H191.41ZM182.976 344.627H203.623V327.758H182.976V344.627ZM195.189 336.193V369.745H212.058V336.193H195.189ZM203.623 378.18H281.052V361.311H203.623V378.18ZM289.487 369.745V313.824H272.618V369.745H289.487ZM285.468 306.638L210.333 260.468L201.502 274.84L276.636 321.011L285.468 306.638ZM210.102 260.331C203.802 256.73 198.799 253.162 194.972 249.667L183.597 262.125C188.565 266.66 194.65 270.93 201.733 274.977L210.102 260.331ZM195.249 249.932C192.919 247.602 191.41 244.268 191.41 238.976H174.541C174.541 247.833 177.238 255.778 183.32 261.86L195.249 249.932ZM191.41 238.976V202.843H174.541V238.976H191.41ZM191.41 202.843C191.41 192.476 193.927 188.045 196.216 186.246L185.794 172.982C177.377 179.595 174.541 190.65 174.541 202.843H191.41ZM196.241 186.227C198.478 184.456 203.918 182.6 214.807 182.6V165.731C203.138 165.731 192.71 167.507 185.77 173.001L196.241 186.227ZM214.807 182.6H301.413V165.731H214.807V182.6ZM292.979 174.165V227.219H309.848V174.165H292.979ZM301.413 218.784H280.765V235.653H301.413V218.784ZM289.2 227.219V193.666H272.331V227.219H289.2ZM280.765 185.232H205.917V202.101H280.765V185.232ZM197.483 193.666V239.55H214.352V193.666H197.483ZM201.447 246.702L272.567 291.152L281.508 276.847L210.388 232.397L201.447 246.702Z" fill="#FFF9DA"/>
<path d="M620.341 189.899C623.033 191.784 625.523 193.466 627.811 194.947C630.234 196.293 632.321 197.774 634.071 199.389C637.57 202.62 639.32 206.59 639.32 211.302V245.626C639.32 251.684 637.167 256.327 632.859 259.558C629.225 262.519 624.446 264 618.524 264H554.115V226.647H568.652V250.27H623.168V210.898L570.267 178.39C565.556 175.698 561.653 172.939 558.557 170.112C555.595 167.151 554.115 163.18 554.115 158.2V132.759C554.115 124.817 555.999 119.366 559.768 116.404C562.999 113.847 568.585 112.568 576.526 112.568H637.503V149.921H622.966V126.298H570.267V158.603L620.341 189.899ZM750.773 112.568C759.657 112.568 765.647 114.251 768.743 117.616C771.839 120.981 773.386 127.644 773.386 137.605V152.344C773.386 160.017 771.771 165.603 768.541 169.103C766.925 170.853 764.772 172.535 762.08 174.15C759.522 175.766 756.359 177.717 752.59 180.006L707.968 207.869V250.27H721.092V264H678.691V250.27H691.411V126.5H678.691V112.568H750.773ZM758.647 126.5H707.968V191.716L758.647 160.421V126.5ZM884.184 164.459V206.86H870.454V192.524H841.985V250.27H893.674V226.647H907.404V264H812.708V250.27H825.429V126.298H812.708V112.568H907.404V149.921H893.674V126.298H841.985V178.794H870.454V164.459H884.184ZM1045.71 250.27V264H1024.71L991.395 201.004L958.08 264H936.677V250.27H948.186L982.713 184.448L952.225 126.298H940.11V112.568H962.32L991.193 168.295L1020.47 112.568H1042.28V126.298H1030.36L999.673 184.448L1034.6 250.27H1045.71ZM574.305 440.27H587.026V316.298H561.585V340.123H547.048V302.568H643.762V340.123H629.023V316.298H603.582V440.27H616.706V454H574.305V440.27ZM790.408 440.27V454H750.43V440.27H761.333L726.807 384.745L705.405 397.869V440.27H718.529V454H676.128V440.27H688.848V316.298H676.128V302.568H748.209C757.093 302.568 763.083 304.318 766.179 307.818C769.275 311.183 770.823 317.846 770.823 327.807V340.325C770.823 345.44 770.352 349.478 769.41 352.44C768.468 355.401 766.785 358.093 764.362 360.516C761.939 362.804 758.709 365.16 754.67 367.583C750.632 370.006 745.517 373.102 739.325 376.871L779.101 440.27H790.408ZM705.405 381.716L756.084 350.421V316.298H705.405V381.716ZM850.473 454C838.493 454 832.503 447.337 832.503 434.011V316.298H819.783V302.568H862.184V316.298H849.06V440.27H903.979V316.298H890.855V302.568H933.256V316.298H920.536V433.001C920.536 447 914.478 454 902.364 454H850.473ZM1037.77 379.899C1040.46 381.784 1042.95 383.466 1045.24 384.947C1047.67 386.293 1049.75 387.774 1051.5 389.389C1055 392.62 1056.75 396.59 1056.75 401.302V435.626C1056.75 441.684 1054.6 446.327 1050.29 449.558C1046.66 452.519 1041.88 454 1035.96 454H971.546V416.647H986.084V440.27H1040.6V400.898L987.699 368.39C982.988 365.698 979.084 362.939 975.988 360.112C973.027 357.151 971.546 353.18 971.546 348.2V322.759C971.546 314.817 973.431 309.366 977.2 306.404C980.43 303.847 986.016 302.568 993.958 302.568H1054.93V339.921H1040.4V316.298H987.699V348.603L1037.77 379.899ZM1108.99 440.27H1121.71V316.298H1096.27V340.123H1081.74V302.568H1178.45V340.123H1163.71V316.298H1138.27V440.27H1151.4V454H1108.99V440.27Z" fill="#FFF9DA"/>
<path d="M620.341 189.899L621.949 187.602L621.889 187.56L621.827 187.521L620.341 189.899ZM627.811 194.947L626.288 197.301L626.367 197.353L626.45 197.398L627.811 194.947ZM634.071 199.389L635.973 197.328L634.071 199.389ZM632.859 259.558L631.177 257.315L631.132 257.348L631.088 257.384L632.859 259.558ZM554.115 264H551.31V266.804H554.115V264ZM554.115 226.647V223.842H551.31V226.647H554.115ZM568.652 226.647H571.456V223.842H568.652V226.647ZM568.652 250.27H565.848V253.074H568.652V250.27ZM623.168 250.27V253.074H625.972V250.27H623.168ZM623.168 210.898H625.972V209.33L624.636 208.509L623.168 210.898ZM570.267 178.39L571.736 176.001L571.697 175.978L571.659 175.956L570.267 178.39ZM558.557 170.112L556.574 172.095L556.619 172.14L556.666 172.183L558.557 170.112ZM559.768 116.404L561.501 118.609L561.509 118.603L559.768 116.404ZM637.503 112.568H640.307V109.764H637.503V112.568ZM637.503 149.921V152.726H640.307V149.921H637.503ZM622.966 149.921H620.161V152.726H622.966V149.921ZM622.966 126.298H625.77V123.494H622.966V126.298ZM570.267 126.298V123.494H567.463V126.298H570.267ZM570.267 158.603H567.463V160.158L568.781 160.981L570.267 158.603ZM618.733 192.197C621.447 194.097 623.966 195.799 626.288 197.301L629.335 192.593C627.08 191.134 624.619 189.471 621.949 187.602L618.733 192.197ZM626.45 197.398C628.708 198.653 630.607 200.008 632.169 201.45L635.973 197.328C634.035 195.54 631.76 193.933 629.173 192.496L626.45 197.398ZM632.169 201.45C635.1 204.156 636.516 207.383 636.516 211.302H642.125C642.125 205.798 640.04 201.083 635.973 197.328L632.169 201.45ZM636.516 211.302V245.626H642.125V211.302H636.516ZM636.516 245.626C636.516 250.927 634.682 254.685 631.177 257.315L634.542 261.801C639.651 257.97 642.125 252.44 642.125 245.626H636.516ZM631.088 257.384C628.074 259.84 623.975 261.196 618.524 261.196V266.804C624.918 266.804 630.376 265.199 634.631 261.732L631.088 257.384ZM618.524 261.196H554.115V266.804H618.524V261.196ZM556.919 264V226.647H551.31V264H556.919ZM554.115 229.451H568.652V223.842H554.115V229.451ZM565.848 226.647V250.27H571.456V226.647H565.848ZM568.652 253.074H623.168V247.466H568.652V253.074ZM625.972 250.27V210.898H620.363V250.27H625.972ZM624.636 208.509L571.736 176.001L568.799 180.78L621.699 213.287L624.636 208.509ZM571.659 175.956C567.077 173.338 563.354 170.695 560.447 168.041L556.666 172.183C559.951 175.183 564.035 178.059 568.876 180.825L571.659 175.956ZM560.539 168.129C558.202 165.792 556.919 162.587 556.919 158.2H551.31C551.31 163.773 552.988 168.51 556.574 172.095L560.539 168.129ZM556.919 158.2V132.759H551.31V158.2H556.919ZM556.919 132.759C556.919 125.121 558.75 120.77 561.501 118.609L558.035 114.199C553.248 117.961 551.31 124.514 551.31 132.759H556.919ZM561.509 118.603C563.957 116.664 568.714 115.372 576.526 115.372V109.764C568.455 109.764 562.04 111.029 558.027 114.206L561.509 118.603ZM576.526 115.372H637.503V109.764H576.526V115.372ZM634.699 112.568V149.921H640.307V112.568H634.699ZM637.503 147.117H622.966V152.726H637.503V147.117ZM625.77 149.921V126.298H620.161V149.921H625.77ZM622.966 123.494H570.267V129.102H622.966V123.494ZM567.463 126.298V158.603H573.072V126.298H567.463ZM568.781 160.981L618.855 192.277L621.827 187.521L571.754 156.225L568.781 160.981ZM768.743 117.616L766.679 119.514L766.679 119.514L768.743 117.616ZM768.541 169.103L770.601 171.005L768.541 169.103ZM762.08 174.15L760.637 171.746L760.609 171.762L760.582 171.779L762.08 174.15ZM752.59 180.006L751.134 177.609L751.119 177.618L751.105 177.627L752.59 180.006ZM707.968 207.869L706.483 205.491L705.164 206.314V207.869H707.968ZM707.968 250.27H705.164V253.074H707.968V250.27ZM721.092 250.27H723.896V247.466H721.092V250.27ZM721.092 264V266.804H723.896V264H721.092ZM678.691 264H675.887V266.804H678.691V264ZM678.691 250.27V247.466H675.887V250.27H678.691ZM691.411 250.27V253.074H694.216V250.27H691.411ZM691.411 126.5H694.216V123.695H691.411V126.5ZM678.691 126.5H675.887V129.304H678.691V126.5ZM678.691 112.568V109.764H675.887V112.568H678.691ZM758.647 126.5H761.451V123.695H758.647V126.5ZM707.968 126.5V123.695H705.164V126.5H707.968ZM707.968 191.716H705.164V196.744L709.441 194.102L707.968 191.716ZM758.647 160.421L760.121 162.807L761.451 161.985V160.421H758.647ZM750.773 115.372C759.531 115.372 764.437 117.078 766.679 119.514L770.806 115.717C766.856 111.423 759.782 109.764 750.773 109.764V115.372ZM766.679 119.514C767.775 120.706 768.779 122.695 769.494 125.771C770.203 128.824 770.582 132.75 770.582 137.605H776.191C776.191 132.498 775.796 128.113 774.957 124.502C774.124 120.915 772.806 117.89 770.806 115.717L766.679 119.514ZM770.582 137.605V152.344H776.191V137.605H770.582ZM770.582 152.344C770.582 159.72 769.013 164.456 766.48 167.201L770.601 171.005C774.529 166.75 776.191 160.313 776.191 152.344H770.582ZM766.48 167.201C765.093 168.703 763.168 170.227 760.637 171.746L763.522 176.555C766.375 174.843 768.758 173.002 770.601 171.005L766.48 167.201ZM760.582 171.779C758.043 173.383 754.895 175.325 751.134 177.609L754.045 182.403C757.823 180.109 761.001 178.148 763.577 176.521L760.582 171.779ZM751.105 177.627L706.483 205.491L709.453 210.248L754.075 182.384L751.105 177.627ZM705.164 207.869V250.27H710.772V207.869H705.164ZM707.968 253.074H721.092V247.466H707.968V253.074ZM718.288 250.27V264H723.896V250.27H718.288ZM721.092 261.196H678.691V266.804H721.092V261.196ZM681.495 264V250.27H675.887V264H681.495ZM678.691 253.074H691.411V247.466H678.691V253.074ZM694.216 250.27V126.5H688.607V250.27H694.216ZM691.411 123.695H678.691V129.304H691.411V123.695ZM681.495 126.5V112.568H675.887V126.5H681.495ZM678.691 115.372H750.773V109.764H678.691V115.372ZM758.647 123.695H707.968V129.304H758.647V123.695ZM705.164 126.5V191.716H710.772V126.5H705.164ZM709.441 194.102L760.121 162.807L757.174 158.035L706.494 189.33L709.441 194.102ZM761.451 160.421V126.5H755.843V160.421H761.451ZM884.184 164.459H886.989V161.654H884.184V164.459ZM884.184 206.86V209.664H886.989V206.86H884.184ZM870.454 206.86H867.65V209.664H870.454V206.86ZM870.454 192.524H873.259V189.72H870.454V192.524ZM841.985 192.524V189.72H839.181V192.524H841.985ZM841.985 250.27H839.181V253.074H841.985V250.27ZM893.674 250.27V253.074H896.478V250.27H893.674ZM893.674 226.647V223.842H890.87V226.647H893.674ZM907.404 226.647H910.208V223.842H907.404V226.647ZM907.404 264V266.804H910.208V264H907.404ZM812.708 264H809.904V266.804H812.708V264ZM812.708 250.27V247.466H809.904V250.27H812.708ZM825.429 250.27V253.074H828.233V250.27H825.429ZM825.429 126.298H828.233V123.494H825.429V126.298ZM812.708 126.298H809.904V129.102H812.708V126.298ZM812.708 112.568V109.764H809.904V112.568H812.708ZM907.404 112.568H910.208V109.764H907.404V112.568ZM907.404 149.921V152.726H910.208V149.921H907.404ZM893.674 149.921H890.87V152.726H893.674V149.921ZM893.674 126.298H896.478V123.494H893.674V126.298ZM841.985 126.298V123.494H839.181V126.298H841.985ZM841.985 178.794H839.181V181.599H841.985V178.794ZM870.454 178.794V181.599H873.259V178.794H870.454ZM870.454 164.459V161.654H867.65V164.459H870.454ZM881.38 164.459V206.86H886.989V164.459H881.38ZM884.184 204.055H870.454V209.664H884.184V204.055ZM873.259 206.86V192.524H867.65V206.86H873.259ZM870.454 189.72H841.985V195.328H870.454V189.72ZM839.181 192.524V250.27H844.789V192.524H839.181ZM841.985 253.074H893.674V247.466H841.985V253.074ZM896.478 250.27V226.647H890.87V250.27H896.478ZM893.674 229.451H907.404V223.842H893.674V229.451ZM904.6 226.647V264H910.208V226.647H904.6ZM907.404 261.196H812.708V266.804H907.404V261.196ZM815.513 264V250.27H809.904V264H815.513ZM812.708 253.074H825.429V247.466H812.708V253.074ZM828.233 250.27V126.298H822.624V250.27H828.233ZM825.429 123.494H812.708V129.102H825.429V123.494ZM815.513 126.298V112.568H809.904V126.298H815.513ZM812.708 115.372H907.404V109.764H812.708V115.372ZM904.6 112.568V149.921H910.208V112.568H904.6ZM907.404 147.117H893.674V152.726H907.404V147.117ZM896.478 149.921V126.298H890.87V149.921H896.478ZM893.674 123.494H841.985V129.102H893.674V123.494ZM839.181 126.298V178.794H844.789V126.298H839.181ZM841.985 181.599H870.454V175.99H841.985V181.599ZM873.259 178.794V164.459H867.65V178.794H873.259ZM870.454 167.263H884.184V161.654H870.454V167.263ZM1045.71 250.27H1048.51V247.466H1045.71V250.27ZM1045.71 264V266.804H1048.51V264H1045.71ZM1024.71 264L1022.23 265.311L1023.02 266.804H1024.71V264ZM991.395 201.004L993.874 199.693L991.395 195.006L988.916 199.693L991.395 201.004ZM958.08 264V266.804H959.769L960.559 265.311L958.08 264ZM936.677 264H933.873V266.804H936.677V264ZM936.677 250.27V247.466H933.873V250.27H936.677ZM948.186 250.27V253.074H949.882L950.67 251.573L948.186 250.27ZM982.713 184.448L985.196 185.75L985.879 184.448L985.196 183.146L982.713 184.448ZM952.225 126.298L954.708 124.996L953.921 123.494H952.225V126.298ZM940.11 126.298H937.306V129.102H940.11V126.298ZM940.11 112.568V109.764H937.306V112.568H940.11ZM962.32 112.568L964.81 111.278L964.025 109.764H962.32V112.568ZM991.193 168.295L988.703 169.585L991.176 174.357L993.676 169.599L991.193 168.295ZM1020.47 112.568V109.764H1018.78L1017.99 111.264L1020.47 112.568ZM1042.28 112.568H1045.08V109.764H1042.28V112.568ZM1042.28 126.298V129.102H1045.08V126.298H1042.28ZM1030.36 126.298V123.494H1028.67L1027.88 124.989L1030.36 126.298ZM999.673 184.448L997.193 183.139L996.5 184.451L997.196 185.762L999.673 184.448ZM1034.6 250.27L1032.13 251.585L1032.92 253.074H1034.6V250.27ZM1042.9 250.27V264H1048.51V250.27H1042.9ZM1045.71 261.196H1024.71V266.804H1045.71V261.196ZM1027.19 262.689L993.874 199.693L988.916 202.315L1022.23 265.311L1027.19 262.689ZM988.916 199.693L955.601 262.689L960.559 265.311L993.874 202.315L988.916 199.693ZM958.08 261.196H936.677V266.804H958.08V261.196ZM939.482 264V250.27H933.873V264H939.482ZM936.677 253.074H948.186V247.466H936.677V253.074ZM950.67 251.573L985.196 185.75L980.229 183.145L945.703 248.968L950.67 251.573ZM985.196 183.146L954.708 124.996L949.741 127.6L980.229 185.75L985.196 183.146ZM952.225 123.494H940.11V129.102H952.225V123.494ZM942.914 126.298V112.568H937.306V126.298H942.914ZM940.11 115.372H962.32V109.764H940.11V115.372ZM959.83 113.858L988.703 169.585L993.683 167.005L964.81 111.278L959.83 113.858ZM993.676 169.599L1022.95 113.872L1017.99 111.264L988.71 166.991L993.676 169.599ZM1020.47 115.372H1042.28V109.764H1020.47V115.372ZM1039.47 112.568V126.298H1045.08V112.568H1039.47ZM1042.28 123.494H1030.36V129.102H1042.28V123.494ZM1027.88 124.989L997.193 183.139L1002.15 185.757L1032.84 127.607L1027.88 124.989ZM997.196 185.762L1032.13 251.585L1037.08 248.956L1002.15 183.133L997.196 185.762ZM1034.6 253.074H1045.71V247.466H1034.6V253.074ZM574.305 440.27V437.466H571.501V440.27H574.305ZM587.026 440.27V443.074H589.83V440.27H587.026ZM587.026 316.298H589.83V313.494H587.026V316.298ZM561.585 316.298V313.494H558.781V316.298H561.585ZM561.585 340.123V342.927H564.389V340.123H561.585ZM547.048 340.123H544.243V342.927H547.048V340.123ZM547.048 302.568V299.764H544.243V302.568H547.048ZM643.762 302.568H646.567V299.764H643.762V302.568ZM643.762 340.123V342.927H646.567V340.123H643.762ZM629.023 340.123H626.219V342.927H629.023V340.123ZM629.023 316.298H631.827V313.494H629.023V316.298ZM603.582 316.298V313.494H600.778V316.298H603.582ZM603.582 440.27H600.778V443.074H603.582V440.27ZM616.706 440.27H619.511V437.466H616.706V440.27ZM616.706 454V456.804H619.511V454H616.706ZM574.305 454H571.501V456.804H574.305V454ZM574.305 443.074H587.026V437.466H574.305V443.074ZM589.83 440.27V316.298H584.221V440.27H589.83ZM587.026 313.494H561.585V319.102H587.026V313.494ZM558.781 316.298V340.123H564.389V316.298H558.781ZM561.585 337.319H547.048V342.927H561.585V337.319ZM549.852 340.123V302.568H544.243V340.123H549.852ZM547.048 305.372H643.762V299.764H547.048V305.372ZM640.958 302.568V340.123H646.567V302.568H640.958ZM643.762 337.319H629.023V342.927H643.762V337.319ZM631.827 340.123V316.298H626.219V340.123H631.827ZM629.023 313.494H603.582V319.102H629.023V313.494ZM600.778 316.298V440.27H606.387V316.298H600.778ZM603.582 443.074H616.706V437.466H603.582V443.074ZM613.902 440.27V454H619.511V440.27H613.902ZM616.706 451.196H574.305V456.804H616.706V451.196ZM577.11 454V440.27H571.501V454H577.11ZM790.408 440.27H793.213V437.466H790.408V440.27ZM790.408 454V456.804H793.213V454H790.408ZM750.43 454H747.626V456.804H750.43V454ZM750.43 440.27V437.466H747.626V440.27H750.43ZM761.333 440.27V443.074H766.379L763.715 438.789L761.333 440.27ZM726.807 384.745L729.188 383.264L727.717 380.898L725.341 382.354L726.807 384.745ZM705.405 397.869L703.939 395.479L702.6 396.299V397.869H705.405ZM705.405 440.27H702.6V443.074H705.405V440.27ZM718.529 440.27H721.333V437.466H718.529V440.27ZM718.529 454V456.804H721.333V454H718.529ZM676.128 454H673.323V456.804H676.128V454ZM676.128 440.27V437.466H673.323V440.27H676.128ZM688.848 440.27V443.074H691.652V440.27H688.848ZM688.848 316.298H691.652V313.494H688.848V316.298ZM676.128 316.298H673.323V319.102H676.128V316.298ZM676.128 302.568V299.764H673.323V302.568H676.128ZM766.179 307.818L764.079 309.676L764.097 309.696L764.116 309.716L766.179 307.818ZM769.41 352.44L766.738 351.589L769.41 352.44ZM764.362 360.516L766.288 362.555L766.317 362.527L766.345 362.499L764.362 360.516ZM754.67 367.583L753.228 365.178L754.67 367.583ZM739.325 376.871L737.867 374.475L735.439 375.953L736.95 378.361L739.325 376.871ZM779.101 440.27L776.726 441.761L777.55 443.074H779.101V440.27ZM705.405 381.716H702.6V386.744L706.878 384.102L705.405 381.716ZM756.084 350.421L757.557 352.807L758.888 351.985V350.421H756.084ZM756.084 316.298H758.888V313.494H756.084V316.298ZM705.405 316.298V313.494H702.6V316.298H705.405ZM787.604 440.27V454H793.213V440.27H787.604ZM790.408 451.196H750.43V456.804H790.408V451.196ZM753.235 454V440.27H747.626V454H753.235ZM750.43 443.074H761.333V437.466H750.43V443.074ZM763.715 438.789L729.188 383.264L724.426 386.226L758.952 441.751L763.715 438.789ZM725.341 382.354L703.939 395.479L706.871 400.26L728.273 387.136L725.341 382.354ZM702.6 397.869V440.27H708.209V397.869H702.6ZM705.405 443.074H718.529V437.466H705.405V443.074ZM715.724 440.27V454H721.333V440.27H715.724ZM718.529 451.196H676.128V456.804H718.529V451.196ZM678.932 454V440.27H673.323V454H678.932ZM676.128 443.074H688.848V437.466H676.128V443.074ZM691.652 440.27V316.298H686.044V440.27H691.652ZM688.848 313.494H676.128V319.102H688.848V313.494ZM678.932 316.298V302.568H673.323V316.298H678.932ZM676.128 305.372H748.209V299.764H676.128V305.372ZM748.209 305.372C756.946 305.372 761.834 307.138 764.079 309.676L768.28 305.96C764.333 301.498 757.24 299.764 748.209 299.764V305.372ZM764.116 309.716C765.212 310.908 766.216 312.897 766.931 315.973C767.64 319.026 768.019 322.952 768.019 327.807H773.627C773.627 322.7 773.233 318.315 772.394 314.704C771.56 311.117 770.242 308.092 768.243 305.919L764.116 309.716ZM768.019 327.807V340.325H773.627V327.807H768.019ZM768.019 340.325C768.019 345.312 767.554 349.023 766.738 351.589L772.082 353.29C773.15 349.934 773.627 345.568 773.627 340.325H768.019ZM766.738 351.589C765.945 354.081 764.518 356.394 762.379 358.533L766.345 362.499C769.052 359.792 770.99 356.721 772.082 353.29L766.738 351.589ZM762.437 358.477C760.207 360.583 757.157 362.82 753.228 365.178L756.113 369.987C760.26 367.499 763.671 365.026 766.288 362.555L762.437 358.477ZM753.228 365.178C749.182 367.605 744.062 370.705 737.867 374.475L740.783 379.266C746.973 375.499 752.082 372.406 756.113 369.987L753.228 365.178ZM736.95 378.361L776.726 441.761L781.477 438.78L741.701 375.38L736.95 378.361ZM779.101 443.074H790.408V437.466H779.101V443.074ZM706.878 384.102L757.557 352.807L754.61 348.035L703.931 379.33L706.878 384.102ZM758.888 350.421V316.298H753.28V350.421H758.888ZM756.084 313.494H705.405V319.102H756.084V313.494ZM702.6 316.298V381.716H708.209V316.298H702.6ZM832.503 316.298H835.308V313.494H832.503V316.298ZM819.783 316.298H816.979V319.102H819.783V316.298ZM819.783 302.568V299.764H816.979V302.568H819.783ZM862.184 302.568H864.988V299.764H862.184V302.568ZM862.184 316.298V319.102H864.988V316.298H862.184ZM849.06 316.298V313.494H846.256V316.298H849.06ZM849.06 440.27H846.256V443.074H849.06V440.27ZM903.979 440.27V443.074H906.784V440.27H903.979ZM903.979 316.298H906.784V313.494H903.979V316.298ZM890.855 316.298H888.051V319.102H890.855V316.298ZM890.855 302.568V299.764H888.051V302.568H890.855ZM933.256 302.568H936.06V299.764H933.256V302.568ZM933.256 316.298V319.102H936.06V316.298H933.256ZM920.536 316.298V313.494H917.731V316.298H920.536ZM850.473 451.196C844.997 451.196 841.381 449.687 839.081 447.128C836.73 444.512 835.308 440.311 835.308 434.011H829.699C829.699 441.037 831.272 446.83 834.91 450.878C838.6 454.982 843.969 456.804 850.473 456.804V451.196ZM835.308 434.011V316.298H829.699V434.011H835.308ZM832.503 313.494H819.783V319.102H832.503V313.494ZM822.587 316.298V302.568H816.979V316.298H822.587ZM819.783 305.372H862.184V299.764H819.783V305.372ZM859.38 302.568V316.298H864.988V302.568H859.38ZM862.184 313.494H849.06V319.102H862.184V313.494ZM846.256 316.298V440.27H851.864V316.298H846.256ZM849.06 443.074H903.979V437.466H849.06V443.074ZM906.784 440.27V316.298H901.175V440.27H906.784ZM903.979 313.494H890.855V319.102H903.979V313.494ZM893.659 316.298V302.568H888.051V316.298H893.659ZM890.855 305.372H933.256V299.764H890.855V305.372ZM930.452 302.568V316.298H936.06V302.568H930.452ZM933.256 313.494H920.536V319.102H933.256V313.494ZM917.731 316.298V433.001H923.34V316.298H917.731ZM917.731 433.001C917.731 439.66 916.282 444.131 913.872 446.915C911.529 449.623 907.875 451.196 902.364 451.196V456.804C908.968 456.804 914.399 454.878 918.113 450.585C921.761 446.371 923.34 440.342 923.34 433.001H917.731ZM902.364 451.196H850.473V456.804H902.364V451.196ZM1037.77 379.899L1039.38 377.602L1039.32 377.56L1039.26 377.521L1037.77 379.899ZM1045.24 384.947L1043.72 387.301L1043.8 387.353L1043.88 387.398L1045.24 384.947ZM1051.5 389.389L1053.4 387.328L1051.5 389.389ZM1050.29 449.558L1048.61 447.315L1048.56 447.348L1048.52 447.384L1050.29 449.558ZM971.546 454H968.742V456.804H971.546V454ZM971.546 416.647V413.842H968.742V416.647H971.546ZM986.084 416.647H988.888V413.842H986.084V416.647ZM986.084 440.27H983.279V443.074H986.084V440.27ZM1040.6 440.27V443.074H1043.4V440.27H1040.6ZM1040.6 400.898H1043.4V399.33L1042.07 398.509L1040.6 400.898ZM987.699 368.39L989.167 366.001L989.129 365.978L989.09 365.956L987.699 368.39ZM975.988 360.112L974.005 362.095L974.05 362.14L974.097 362.183L975.988 360.112ZM977.2 306.404L978.932 308.609L978.94 308.603L977.2 306.404ZM1054.93 302.568H1057.74V299.764H1054.93V302.568ZM1054.93 339.921V342.726H1057.74V339.921H1054.93ZM1040.4 339.921H1037.59V342.726H1040.4V339.921ZM1040.4 316.298H1043.2V313.494H1040.4V316.298ZM987.699 316.298V313.494H984.895V316.298H987.699ZM987.699 348.603H984.895V350.158L986.213 350.981L987.699 348.603ZM1036.16 382.197C1038.88 384.097 1041.4 385.799 1043.72 387.301L1046.77 382.593C1044.51 381.134 1042.05 379.471 1039.38 377.602L1036.16 382.197ZM1043.88 387.398C1046.14 388.653 1048.04 390.008 1049.6 391.45L1053.4 387.328C1051.47 385.54 1049.19 383.933 1046.61 382.496L1043.88 387.398ZM1049.6 391.45C1052.53 394.156 1053.95 397.383 1053.95 401.302H1059.56C1059.56 395.798 1057.47 391.083 1053.4 387.328L1049.6 391.45ZM1053.95 401.302V435.626H1059.56V401.302H1053.95ZM1053.95 435.626C1053.95 440.927 1052.11 444.685 1048.61 447.315L1051.97 451.801C1057.08 447.97 1059.56 442.44 1059.56 435.626H1053.95ZM1048.52 447.384C1045.51 449.84 1041.41 451.196 1035.96 451.196V456.804C1042.35 456.804 1047.81 455.199 1052.06 451.732L1048.52 447.384ZM1035.96 451.196H971.546V456.804H1035.96V451.196ZM974.351 454V416.647H968.742V454H974.351ZM971.546 419.451H986.084V413.842H971.546V419.451ZM983.279 416.647V440.27H988.888V416.647H983.279ZM986.084 443.074H1040.6V437.466H986.084V443.074ZM1043.4 440.27V400.898H1037.79V440.27H1043.4ZM1042.07 398.509L989.167 366.001L986.231 370.78L1039.13 403.287L1042.07 398.509ZM989.09 365.956C984.509 363.338 980.785 360.695 977.879 358.041L974.097 362.183C977.383 365.183 981.466 368.059 986.308 370.825L989.09 365.956ZM977.971 358.129C975.634 355.792 974.351 352.587 974.351 348.2H968.742C968.742 353.773 970.42 358.51 974.005 362.095L977.971 358.129ZM974.351 348.2V322.759H968.742V348.2H974.351ZM974.351 322.759C974.351 315.121 976.182 310.77 978.932 308.609L975.467 304.199C970.68 307.961 968.742 314.514 968.742 322.759H974.351ZM978.94 308.603C981.389 306.664 986.146 305.372 993.958 305.372V299.764C985.887 299.764 979.471 301.029 975.459 304.206L978.94 308.603ZM993.958 305.372H1054.93V299.764H993.958V305.372ZM1052.13 302.568V339.921H1057.74V302.568H1052.13ZM1054.93 337.117H1040.4V342.726H1054.93V337.117ZM1043.2 339.921V316.298H1037.59V339.921H1043.2ZM1040.4 313.494H987.699V319.102H1040.4V313.494ZM984.895 316.298V348.603H990.503V316.298H984.895ZM986.213 350.981L1036.29 382.277L1039.26 377.521L989.185 346.225L986.213 350.981ZM1108.99 440.27V437.466H1106.19V440.27H1108.99ZM1121.71 440.27V443.074H1124.52V440.27H1121.71ZM1121.71 316.298H1124.52V313.494H1121.71V316.298ZM1096.27 316.298V313.494H1093.47V316.298H1096.27ZM1096.27 340.123V342.927H1099.08V340.123H1096.27ZM1081.74 340.123H1078.93V342.927H1081.74V340.123ZM1081.74 302.568V299.764H1078.93V302.568H1081.74ZM1178.45 302.568H1181.26V299.764H1178.45V302.568ZM1178.45 340.123V342.927H1181.26V340.123H1178.45ZM1163.71 340.123H1160.91V342.927H1163.71V340.123ZM1163.71 316.298H1166.52V313.494H1163.71V316.298ZM1138.27 316.298V313.494H1135.47V316.298H1138.27ZM1138.27 440.27H1135.47V443.074H1138.27V440.27ZM1151.4 440.27H1154.2V437.466H1151.4V440.27ZM1151.4 454V456.804H1154.2V454H1151.4ZM1108.99 454H1106.19V456.804H1108.99V454ZM1108.99 443.074H1121.71V437.466H1108.99V443.074ZM1124.52 440.27V316.298H1118.91V440.27H1124.52ZM1121.71 313.494H1096.27V319.102H1121.71V313.494ZM1093.47 316.298V340.123H1099.08V316.298H1093.47ZM1096.27 337.319H1081.74V342.927H1096.27V337.319ZM1084.54 340.123V302.568H1078.93V340.123H1084.54ZM1081.74 305.372H1178.45V299.764H1081.74V305.372ZM1175.65 302.568V340.123H1181.26V302.568H1175.65ZM1178.45 337.319H1163.71V342.927H1178.45V337.319ZM1166.52 340.123V316.298H1160.91V340.123H1166.52ZM1163.71 313.494H1138.27V319.102H1163.71V313.494ZM1135.47 316.298V440.27H1141.08V316.298H1135.47ZM1138.27 443.074H1151.4V437.466H1138.27V443.074ZM1148.59 440.27V454H1154.2V440.27H1148.59ZM1151.4 451.196H1108.99V456.804H1151.4V451.196ZM1111.8 454V440.27H1106.19V454H1111.8Z" fill="#FFF9DA"/>
</svg>
